<svg width="244" height="207" viewBox="0 0 244 207" fill="none" xmlns="http://www.w3.org/2000/svg">
    <path d="M82.5 27.5C64.3993 5.91264 49.5 -1.99998 26 1.99999C8.5 17.5 9.09764 51.0335 25 79L82.5 27.5Z" fill="#363636" stroke="#363636"/>
    <path d="M161 27.4995C179.224 5.91184 194.225 -2.00087 217.885 1.99915C235.504 17.4993 234.902 51.0331 218.892 79L161 27.4995Z" fill="#363636" stroke="#363636"/>
    <path d="M122 20.5C69.5002 20.5 22.6193 58.6373 8.50022 124C6.64244 175.044 53.5002 206.5 122 206.5C190.5 206.5 235.346 183.68 234.5 124C224.707 57.4317 174.5 20.5 122 20.5Z" fill="#363636" stroke="#363636"/>
    <path d="M34 58.2192C29.5 57.2192 26.0983 52.3636 26 38.7192C26.5105 29.0078 28.5 19.2192 32.5 16.2192C39 15.2192 44.6662 17.7707 51 21.2192C57.8279 25.0787 61.5 26.7192 63 33.2192C63.5 37.7192 59.5 41.7192 50 47.7192C44.393 52.6799 38.8936 57.9862 34 58.2192Z" fill="#E8505B" stroke="#8B3037" stroke-width="2"/>
    <path d="M210.009 58C214.504 57.0052 217.902 52.1748 218 38.6013C217.49 28.9402 215.503 19.2025 211.507 16.2181C205.015 15.2233 199.355 17.7615 193.028 21.1921C186.208 25.0316 182.54 26.6636 181.041 33.1298C180.542 37.6065 184.538 41.5857 194.027 47.5545C199.628 52.4894 205.121 57.7682 210.009 58Z" fill="#E8505B" stroke="#8B3037" stroke-width="2"/>
    <path d="M61 97C53 97.0001 45 108.5 44 128C45 144.5 49.4615 148.304 61 149C72.5175 148.052 77.5 144 78 128C76.9541 109.293 69 96.9999 61 97Z" fill="#E8505B" stroke="#8B3037" stroke-width="2"/>
    <path d="M182 97C190 97.0001 198 108.5 199 128C198 144.5 193.538 148.304 182 149C170.482 148.052 165.5 144 165 128C166.046 109.293 174 96.9999 182 97Z" fill="#E8505B" stroke="#8B3037" stroke-width="2"/>
    <path d="M104 152C104 152 107.5 163 120 163C132.5 163 137 152 137 152" stroke="#E8505B" stroke-width="8" stroke-linecap="round"/>
    <path d="M37 160L4 186" stroke="#E0E0E0" stroke-width="8" stroke-linecap="round"/>
    <path d="M48.2266 172L25.5328 203" stroke="#E0E0E0" stroke-width="8" stroke-linecap="round"/>
    <path d="M206.24 160L239.24 186" stroke="#E0E0E0" stroke-width="8" stroke-linecap="round"/>
    <path d="M195.466 172.097L217.928 202.78" stroke="#E0E0E0" stroke-width="8" stroke-linecap="round"/>
</svg>
