<svg width="266" height="207" viewBox="0 0 266 207" fill="none" xmlns="http://www.w3.org/2000/svg">
    <path d="M220.087 136.099C244.453 140.365 251.412 137.753 253.63 138.563C250.272 160.274 228.312 194.233 170.415 201.159L220.087 136.099Z" fill="#363636" stroke="#363636"/>
    <path d="M217.912 133.07C242.278 137.335 249.461 128.026 251.68 128.836C248.321 150.546 226.361 184.506 168.465 191.432L217.912 133.07Z" fill="#363636" stroke="#363636"/>
    <path d="M45.4487 133.295C21.0826 137.56 14.1235 134.948 11.9051 135.758C15.2636 157.469 37.2235 191.428 95.12 198.355L45.4487 133.295Z" fill="#363636" stroke="#363636"/>
    <path d="M47.6236 130.265C23.2576 134.53 16.0739 125.221 13.8555 126.031C17.2141 147.742 39.1739 181.701 97.0704 188.627L47.6236 130.265Z" fill="#363636" stroke="#363636"/>
    <path d="M93.5 27.5001C75.3993 5.91276 60.5 -1.99986 37 2.00011C19.5 17.5001 20.0976 51.0336 36 79.0002L93.5 27.5001Z" fill="#363636" stroke="#363636"/>
    <path d="M172 27.4995C190.224 5.91183 205.225 -2.00087 228.885 1.99915C246.504 17.4993 245.902 51.0331 229.892 79L172 27.4995Z" fill="#363636" stroke="#363636"/>
    <path d="M133 20.5C80.5002 20.5 33.6193 58.6373 19.5002 124C17.6424 175.044 64.5002 206.5 133 206.5C201.5 206.5 246.346 183.68 245.5 124C235.707 57.4317 185.5 20.5 133 20.5Z" fill="#363636" stroke="#363636"/>
    <path d="M45 58.2192C40.5 57.2192 37.0983 52.3636 37 38.7192C37.5105 29.0078 39.5 19.2192 43.5 16.2192C50 15.2192 55.6662 17.7707 62 21.2192C68.8279 25.0787 72.5 26.7192 74 33.2192C74.5 37.7192 70.5 41.7192 61 47.7192C55.393 52.6799 49.8936 57.9862 45 58.2192Z" fill="#E8505B" stroke="#8B3037" stroke-width="2"/>
    <path d="M221.009 58C225.504 57.0052 228.902 52.1748 229 38.6013C228.49 28.9402 226.503 19.2025 222.507 16.2181C216.015 15.2233 210.355 17.7615 204.028 21.1921C197.208 25.0316 193.54 26.6636 192.041 33.1298C191.542 37.6065 195.538 41.5857 205.027 47.5545C210.628 52.4894 216.121 57.7682 221.009 58Z" fill="#E8505B" stroke="#8B3037" stroke-width="2"/>
    <path d="M72 97.0001C64 97.0002 56 108.5 55 128C56 144.5 60.4615 148.304 72 149C83.5175 148.052 88.5 144 89 128C87.9541 109.293 80 97.0001 72 97.0001Z" fill="#E8505B" stroke="#8B3037" stroke-width="2"/>
    <path d="M193 97.0001C201 97.0002 209 108.5 210 128C209 144.5 204.538 148.304 193 149C181.482 148.052 176.5 144 176 128C177.046 109.293 185 97.0001 193 97.0001Z" fill="#E8505B" stroke="#8B3037" stroke-width="2"/>
    <path d="M115 152C115 152 118.5 163 131 163C143.5 163 148 152 148 152" stroke="#E8505B" stroke-width="8" stroke-linecap="round"/>
    <path d="M48 160L15 186" stroke="#E0E0E0" stroke-width="8" stroke-linecap="round"/>
    <path d="M59.2266 172L36.5328 203" stroke="#E0E0E0" stroke-width="8" stroke-linecap="round"/>
    <path d="M217.24 160L250.24 186" stroke="#E0E0E0" stroke-width="8" stroke-linecap="round"/>
    <path d="M206.466 172.097L228.928 202.78" stroke="#E0E0E0" stroke-width="8" stroke-linecap="round"/>
</svg>
